<svg width="213" height="33" viewBox="0 0 213 33" xmlns="http://www.w3.org/2000/svg" xmlns:xlink="http://www.w3.org/1999/xlink"><title>Logo</title><defs><path id="a" d="M0 29.4827586L178.987104 29.4827586 178.987104 0.459310345 0 0.459310345z"/></defs><g fill="none" fill-rule="evenodd"><path fill="#F16850" d="M12.4646694 5.71698308L6.10140408 3.05541095 6.7916898 9.6416796 0.00148571429 11.0501572 4.62532245 15.9924856 0.0000163265306 20.9329035 6.79022041 22.344406 6.09862857 28.929401 12.4618939 26.2689433 15.9686694 31.9848438 19.474302 26.2703761 25.8375673 28.9321075 25.1461388 22.3458388 31.937649 20.937202 27.3134857 15.995192 31.937649 11.0530229 25.1474449 9.64295323 25.8390367 3.05684378 19.4757714 5.71698308 15.9686694 0.00124179104z"/><path fill="#FD694F" d="M15.9687184 9.98318806L12.4642286 5.71508856 6.1012898 3.05303881 9.88937143 7.92420299z"/><path fill="#FF3413" d="M0.000734693878 11.0481353L4.6242449 15.9906229 10.0666939 14.0672796 6.7917551 9.63965771z"/><path fill="#DC1D23" d="M9.88932245 7.92418706L6.10140408 3.05302289 6.7916898 9.63960995 10.0666286 14.0672318z"/><path fill="#FF9281" d="M15.9687184 0.000111442786L12.4642286 5.71505672 15.9687184 9.98331542 19.4756571 5.71553433z"/><path fill="#FF8B79" d="M21.8708082 14.0672637L27.3132571 15.992995 31.9375837 11.0516219 25.1473796 9.64171144z"/><path fill="#FD694F" d="M21.8708245 14.0672318L25.1473959 9.6416796 25.8394776 3.05493333 22.0482939 7.92418706z"/><path fill="#EF5240" d="M22.0482776 7.92418706L25.8394612 3.05493333 19.4757061 5.71555025 15.9687673 9.98317214z"/><path fill="#FF482C" d="M25.8056816 18.9377592L31.9367837 20.9352915 27.3132735 15.9929632 21.8708245 14.0672318z"/><path fill="#EC2101" d="M4.6243102 15.9905592L-0.0000163265306 20.9317731 6.13206531 18.9377433 10.0665959 14.0672159z"/><path fill="#D21C22" d="M15.9687184 25.7445891L15.9687184 31.9833154 19.4733714 26.2685294 19.6165551 20.6755343z"/><path fill="#C90901" d="M19.6164735 20.6755025L25.1462694 22.343801 31.9368 20.9353234 25.805698 18.937791z"/><path fill="#EC2101" d="M19.4733551 26.2685612L25.8366204 28.9302925 25.1461714 22.3437055 19.6165388 20.675407z"/><path fill="#B6171E" d="M0 20.9316935L6.79020408 22.3420816 12.3211429 20.6755343 6.13208163 18.9378229z"/><path fill="#B4151B" d="M12.4618776 26.2677174L15.9686531 31.9832995 15.9686531 25.7445731 12.3211429 20.6755184z"/><path fill="#D21C22" d="M6.7901551 22.3420179L6.09856327 28.9281274 12.4618286 26.2678289 12.3210939 20.6754706z"/><path fill="#E63320" d="M21.8708245 14.0672318L22.0482939 7.92418706 15.9687837 9.98317214 15.9687837 15.9612816z"/><path fill="#FF4527" d="M15.9687184 9.98318806L9.88937143 7.92420299 10.0666776 14.0672478 15.9687184 15.9612975z"/><path fill="#FF9281" d="M12.3210776 20.6754388L15.968751 25.7446527 19.6165878 20.6754388 15.968751 15.961409z"/><path fill="#FD684D" d="M15.9687184 15.9613453L19.6165551 20.6753751 25.8056163 18.9378229 21.8707592 14.0672955z"/><path fill="#FD745C" d="M10.0666286 14.0672318L6.13193469 18.9377592 12.3211592 20.6754706 15.9686694 15.9612816z"/><g transform="translate(34 3)"><path fill="#D10" d="M21.5284383 2.56556897L17.7658274 18.9331552 13.9784556 2.70160345 13.9459571 2.56556897 10.5599167 2.56556897 6.79988501 18.806431 3.09711268 2.56556897 -0.0000515850144 2.56556897 4.91754784 23.6328103 4.94953055 23.7683276 8.45421643 23.7683276 12.2152798 7.66763793 15.9304326 23.6328103 15.9624153 23.7683276 19.5264239 23.7683276 24.5296545 2.78332759 24.5817553 2.56556897z"/><g transform="translate(0 .058)"><path d="M34.344 20.164c-.66.943-1.649 1.402-3.02 1.402-1.44 0-2.452-.463-3.094-1.415-.646-.96-.974-2.467-.974-4.48 0-2.092.34-3.632 1.01-4.575.655-.926 1.684-1.396 3.058-1.396 1.352 0 2.335.455 3.007 1.39.674.939 1.016 2.48 1.016 4.58 0 2.033-.338 3.545-1.003 4.494m-3.02-13.06c-2.266 0-4.03.719-5.244 2.139-1.209 1.413-1.821 3.575-1.821 6.427 0 2.803.61 4.943 1.813 6.36 1.21 1.425 2.976 2.148 5.252 2.148s4.036-.73 5.23-2.172c1.188-1.432 1.79-3.564 1.79-6.336 0-2.8-.6-4.95-1.781-6.387-1.19-1.447-2.954-2.18-5.24-2.18" fill="#D10"/><mask id="b" fill="#fff"><use xlink:href="#a"/></mask><path fill="#D10" mask="url(#b)" d="M41.2437666 23.7108621L44.1521297 23.7108621 44.1521297 0.92637931 41.2437666 0.92637931z"/><path d="M56.711 1.061c-.91-.399-1.95-.602-3.09-.602-1.834 0-3.139.476-3.88 1.415-.73.927-1.101 2.38-1.101 4.321v1.36h-2.293v2.522h2.293V23.71h2.907V10.077h3.468V7.555h-3.468v-1.36c0-1.26.16-2.109.47-2.522.301-.4.86-.602 1.663-.602.33 0 .713.054 1.134.16.422.108.775.235 1.048.378l.184.097.81-2.581-.145-.064zm7.908 6.253c-.994 0-1.912.298-2.727.884a17.241 17.241 0 0 0-1.98 1.671V7.555h-2.908v16.156h2.908V12.686c.904-.908 1.705-1.542 2.381-1.882a4.718 4.718 0 0 1 2.133-.516c.49 0 .868.056 1.122.166l.193.084.626-2.823-.117-.063c-.411-.224-.96-.338-1.63-.338m8.056 14.192c-.886 0-1.553-.194-1.984-.575-.425-.374-.64-1.014-.64-1.9 0-.944.317-1.64.97-2.126.666-.496 1.843-.82 3.5-.968l2.311-.223v3.577c-.307.245-.62.496-.94.754a8.563 8.563 0 0 1-1.043.723c-.357.21-.724.39-1.09.53a3.01 3.01 0 0 1-1.084.208M78.22 8.379c-1-.846-2.66-1.276-4.934-1.276-1.468 0-2.717.241-3.714.717-1.006.482-1.766 1.183-2.258 2.086l-.08.148 2.392 1.477.09-.156c.233-.405.627-.79 1.171-1.145.54-.351 1.327-.53 2.339-.53 1.141 0 2.043.213 2.68.635.615.405.927 1.192.927 2.338v.607l-3.686.333c-1.533.182-2.721.49-3.535.914-.824.43-1.464 1.026-1.901 1.77-.436.742-.656 1.682-.656 2.794 0 1.474.422 2.702 1.256 3.65.84.953 2.043 1.437 3.576 1.437 1.037 0 1.982-.24 2.81-.715a14.64 14.64 0 0 0 2.136-1.519v1.767h2.907V12.793c0-2.074-.511-3.559-1.52-4.414m25.125 1.214c-.278-.8-.725-1.422-1.329-1.848-.603-.426-1.408-.642-2.392-.642-1.063 0-2.043.31-2.912.92-.771.543-1.54 1.21-2.287 1.985-.235-.949-.655-1.665-1.25-2.13-.659-.514-1.543-.775-2.629-.775-.983 0-1.917.294-2.776.873A12.646 12.646 0 0 0 85.78 9.64V7.555H82.87v16.156h2.908V12.445c.791-.795 1.553-1.415 2.266-1.843.714-.428 1.34-.646 1.86-.646.565 0 .98.098 1.236.29.253.19.436.528.545 1.005.115.506.174 1.507.174 2.974v9.486h2.908V12.449c1.002-.943 1.824-1.602 2.442-1.958.615-.355 1.172-.535 1.655-.535.569 0 .993.09 1.26.266.258.17.443.486.55.94.116.486.174 1.517.174 3.063v9.486h2.908V12.989c0-1.469-.138-2.612-.412-3.396" fill="#D10" mask="url(#b)"/><path d="M117.751 15.404h-6.215l3.108-9.421 3.107 9.421zm-1.123-12.896h-3.82l-7.159 21.203h3.183l1.756-5.424h8.142l1.786 5.424h3.272l-7.12-21.084-.04-.119z" fill="#FF7D00" mask="url(#b)"/><path fill="#FF7D00" mask="url(#b)" d="M125.72764 23.7108621L128.635487 23.7108621 128.635487 0.92637931 125.72764 0.92637931z"/><path d="M142.48 15.58c0 2.05-.364 3.57-1.08 4.518-.716.948-1.605 1.408-2.72 1.408-1.28 0-2.572-.542-3.843-1.61v-8.203a8.876 8.876 0 0 1 1.844-1.337 4.616 4.616 0 0 1 2.253-.595c2.386 0 3.547 1.903 3.547 5.82m-3.056-8.478c-.964 0-1.88.203-2.723.604-.704.335-1.33.74-1.865 1.207V7.555h-2.909v21.927h2.909v-6.869c1.296 1.04 2.703 1.565 4.186 1.565 2.004 0 3.601-.797 4.747-2.369 1.133-1.555 1.708-3.671 1.708-6.289 0-2.677-.533-4.767-1.582-6.214-1.062-1.461-2.566-2.203-4.471-2.203m16.726 0c-1 0-2.006.294-2.99.875a12.832 12.832 0 0 0-2.268 1.689V.927h-2.908V23.71h2.908V12.45a15.12 15.12 0 0 1 2.442-1.764c.842-.485 1.584-.73 2.205-.73.617 0 1.085.106 1.392.316.3.207.52.541.652.995.138.479.209 1.474.209 2.957v9.486h2.907V12.989c0-2.101-.368-3.621-1.096-4.518-.735-.908-1.898-1.368-3.453-1.368m12.714 14.403c-.886 0-1.553-.194-1.984-.575-.425-.374-.64-1.014-.64-1.9 0-.944.318-1.64.97-2.126.666-.496 1.843-.82 3.5-.968l2.311-.223v3.577c-.307.245-.62.496-.94.754a8.563 8.563 0 0 1-1.043.723c-.357.21-.724.39-1.09.53a3.01 3.01 0 0 1-1.084.208m5.544-13.127c-1-.846-2.66-1.276-4.934-1.276-1.468 0-2.717.241-3.714.717-1.006.482-1.766 1.183-2.258 2.086l-.08.148 2.392 1.477.09-.156c.233-.405.627-.79 1.171-1.145.54-.351 1.327-.53 2.339-.53 1.14 0 2.043.213 2.68.635.615.405.927 1.192.927 2.338v.607l-3.687.333c-1.531.182-2.72.49-3.534.914-.824.43-1.464 1.026-1.901 1.77-.436.742-.656 1.682-.656 2.794 0 1.474.422 2.702 1.256 3.65.84.953 2.043 1.437 3.576 1.437 1.037 0 1.982-.24 2.81-.715a14.64 14.64 0 0 0 2.136-1.519v1.767h2.907V12.793c0-2.074-.511-3.559-1.52-4.414" fill="#FF7D00" mask="url(#b)"/><path d="M177.19 6.74h.22a.77.77 0 0 0 .152-.013.215.215 0 0 0 .09-.04.138.138 0 0 0 .044-.07.463.463 0 0 0-.002-.208.152.152 0 0 0-.043-.069.21.21 0 0 0-.087-.039.632.632 0 0 0-.14-.013h-.233v.452zm-.331.908V6.002h.562c.098 0 .184.007.263.023a.501.501 0 0 1 .2.08.384.384 0 0 1 .126.152c.03.063.046.142.046.237a.528.528 0 0 1-.084.314.453.453 0 0 1-.223.162l.457.678h-.4l-.411-.621h-.204v.62h-.332zm.578.496c.118 0 .232-.015.34-.047a1.261 1.261 0 0 0 .756-.593c.056-.095.1-.197.13-.306.03-.11.045-.224.045-.342a1.27 1.27 0 0 0-.37-.907 1.243 1.243 0 0 0-.902-.376 1.23 1.23 0 0 0-.495.101 1.288 1.288 0 0 0-.674.683 1.242 1.242 0 0 0-.099.499 1.291 1.291 0 0 0 .93 1.241c.11.032.221.047.339.047zm0 .275a1.574 1.574 0 0 1-.792-.212 1.537 1.537 0 0 1-.708-.934 1.635 1.635 0 0 1 .002-.835c.037-.134.088-.258.155-.374.069-.115.15-.22.243-.313a1.544 1.544 0 0 1 1.1-.45 1.57 1.57 0 0 1 .791.21 1.558 1.558 0 0 1 .76 1.344 1.6 1.6 0 0 1-.21.797 1.504 1.504 0 0 1-.554.558 1.59 1.59 0 0 1-.788.209z" fill="#FF943A" mask="url(#b)"/></g></g></g></svg>